<svg xmlns="http://www.w3.org/2000/svg" viewBox="0 0 40.1 44.92"><defs><style>.cls-1{fill:#bcb893;}</style></defs><g id="Calque_2" data-name="Calque 2"><g id="Calque_1-2" data-name="Calque 1"><path class="cls-1" d="M5.05,3.33,5.22.19H7.55L5.87,3.29H9.08L9.7,1.53l.43,0,.61,1.77h2.6C14,2,13.48,1.09,11.8.71l.42-.47L14.6,0l.14,3.22h10.6L25.53,0l2.32.19-1.8,3h3.39l.45-1.65.39-.11.81,1.81h3L32.68.22,34.86,0l.19,3.1c.16.11.25.23.35.23,4.52.36,4.69.55,4.69,5.22,0,1.26,0,2.52,0,3.78,0,1.09-.44,1.45-1.51,1.45q-18.53,0-37.07,0C.29,13.79,0,13.25,0,12.15c.05-1.73,0-3.47,0-5.21,0-2.66.89-3.49,3.61-3.54C4,3.39,4.46,3.36,5.05,3.33ZM1.24,12.42H38.88c0-1.9,0-3.69,0-5.47,0-2-.41-2.4-2.45-2.41-4.74,0-9.48,0-14.22,0H3.67c-1.22,0-2.39.1-2.42,1.7C1.2,8.25,1.24,10.28,1.24,12.42Z"/><path class="cls-1" d="M39.86,15a14.15,14.15,0,0,1,.23,1.82q0,12.24,0,24.47c0,2.82-.84,3.67-3.64,3.67q-16.4,0-32.78,0C.85,44.91,0,44.07,0,41.25Q0,29,0,16.78A16.31,16.31,0,0,1,.24,15l.66,0a12.58,12.58,0,0,1,.31,2c0,8,0,16,0,23.93,0,2.8.13,2.91,3,2.91H35.72c3.1,0,3.16-.05,3.16-3.08,0-7.92,0-15.84,0-23.75a14.74,14.74,0,0,1,.25-2Z"/><path class="cls-1" d="M20.06,41c-4.39,0-8.77,0-13.15,0-2.18,0-2.75-.6-2.76-2.81q0-6.2,0-12.41c0-2.21.66-2.85,2.93-2.85H33c2.32,0,2.93.64,2.94,3q0,6,0,12.06c0,2.44-.53,3-2.94,3C28.7,41,24.38,41,20.06,41Zm-.19-1.16c4.32,0,8.64,0,13,0,1.42,0,2.07-.33,2-1.9-.09-4-.08-8,0-12,0-1.46-.6-1.87-1.93-1.86Q20,24.07,7.19,24c-1.5,0-2,.58-1.94,2,.08,3.84.1,7.67,0,11.5,0,1.7.43,2.34,2.21,2.29C11.59,39.72,15.73,39.8,19.87,39.8Z"/><path class="cls-1" d="M9.33,18.59l-.55,1.8c-1.07-1.09-1.17-3.25-.16-5.07l.76,2H30.73l.63-1.77c1,1.11,1.13,3.29.11,5l-.73-2Z"/><path class="cls-1" d="M20.07,11a2.43,2.43,0,0,1-2.48-2.29,2.4,2.4,0,0,1,2.32-2.43A2.36,2.36,0,1,1,20.07,11Zm0-4.1c-.62.79-1.27,1.26-1.21,1.61s.69.9,1.08,1.34c.4-.37,1.09-.71,1.12-1.11S20.59,7.71,20.1,6.86Z"/><path class="cls-1" d="M33.84,11a2.3,2.3,0,0,1-2.32-2.4,2.3,2.3,0,0,1,2.39-2.33A2.37,2.37,0,1,1,33.84,11ZM34,7c-.55.62-1.23,1.07-1.19,1.43s.67.92,1,1.38C34.23,9.4,34.89,9,35,8.55S34.45,7.69,34,7Z"/><path class="cls-1" d="M27,11a2.36,2.36,0,1,1,2.34-2.43A2.43,2.43,0,0,1,27,11Zm-.19-4.1c-.48.86-1,1.38-1,1.85s.72.73,1.12,1.09c.37-.44,1-.85,1.05-1.34S27.43,7.64,26.81,6.86Z"/><path class="cls-1" d="M3,7.56c1.06-1.14,9.77-1.18,11,0A52.62,52.62,0,0,1,3,7.56Z"/><path class="cls-1" d="M10,10.26H2.76C3.94,9.07,8.66,9,10,10.26Z"/></g></g></svg>