<svg xmlns="http://www.w3.org/2000/svg" viewBox="0 0 44.64 40.63"><defs><style>.cls-1{fill:#bcb893;}</style></defs><g id="Calque_2" data-name="Calque 2"><g id="Calque_1-2" data-name="Calque 1"><path class="cls-1" d="M9.46,37c0,.45,0,.87,0,1.29a2.4,2.4,0,0,1-4.8,0c0-.43,0-.87,0-1.36l-.48,0H1c-.73,0-1-.25-1-1V28.82a1.29,1.29,0,0,1,.1-.51L7.15,11.49a2.69,2.69,0,0,0,.17-.93c0-3.17,0-6.33,0-9.49C7.33.19,7.52,0,8.41,0H36.23c.91,0,1.09.19,1.09,1.11,0,3.12,0,6.23,0,9.35a3.14,3.14,0,0,0,.23,1.18c2.32,5.56,4.66,11.12,7,16.67a1.29,1.29,0,0,1,.1.51v7.12c0,.72-.25,1-1,1H40v1.25a2.41,2.41,0,1,1-4.81,0V37Zm-7.57-9H42.74c-.07-.18-.11-.3-.16-.42-1.12-2.67-2.25-5.33-3.35-8a.55.55,0,0,0-.61-.39H6.05a.58.58,0,0,0-.65.41c-.88,2.15-1.79,4.3-2.68,6.44Zm-.37,7.47h41.6V29.49H1.52ZM33.73,10.44h2.06V1.53H8.85v8.9h2.07c-.21-.94-.39-1.82-.61-2.69a.89.89,0,0,1,.12-.94c.27-.28.58-.21.93-.14,1.3.26,2.59.56,3.9.69a12.87,12.87,0,0,0,5.56-.71.73.73,0,0,1,1,.59,1.54,1.54,0,0,1-.11.55,9.84,9.84,0,0,0-.48,2.65h2.22c-.22-1-.42-1.88-.65-2.78A.8.8,0,0,1,23,6.8a.75.75,0,0,1,.84-.16,15.22,15.22,0,0,0,9.46,0,.84.84,0,0,1,.93.15.91.91,0,0,1,.11.94C34.12,8.62,33.94,9.5,33.73,10.44Zm0,1.53c.2.85.37,1.62.58,2.39.11.36.21.71-.1,1s-.64.19-1,.11a30.52,30.52,0,0,0-3.51-.66,15.15,15.15,0,0,0-5.9.72.74.74,0,0,1-1-.7,1.57,1.57,0,0,1,.12-.46A7.7,7.7,0,0,0,23.38,12H21.26a4,4,0,0,0,.06.63q.24,1,.51,2a.75.75,0,0,1-.9,1l-.33-.11a15.23,15.23,0,0,0-9.16,0c-.37.12-.71.2-1-.12s-.19-.65-.09-1c.2-.76.37-1.53.58-2.37-.82,0-1.5,0-2.18,0-.1,0-.23.16-.28.27-.27.61-.52,1.23-.78,1.85-.48,1.15-1,2.3-1.46,3.48h32.2c-.76-1.83-1.51-3.62-2.27-5.41A.36.36,0,0,0,35.9,12C35.22,12,34.54,12,33.73,12ZM12.05,8.41a12.63,12.63,0,0,1,0,5.3,17.9,17.9,0,0,1,7.91,0,12.46,12.46,0,0,1,0-5.3A17.73,17.73,0,0,1,12.05,8.41Zm20.54,0a17.83,17.83,0,0,1-8,0,12.63,12.63,0,0,1,0,5.3,17.94,17.94,0,0,1,7.92,0A12.46,12.46,0,0,1,32.59,8.41Zm4.08,28.52v.42c0,.32,0,.64,0,1a.87.87,0,0,0,.81.82.84.84,0,0,0,1-.69,12.67,12.67,0,0,0,0-1.51Zm-30.5,0c0,.16,0,.31,0,.45,0,.32,0,.64,0,1a.87.87,0,0,0,.89.79.85.85,0,0,0,.89-.73,14.2,14.2,0,0,0,0-1.46Z"/></g></g></svg>