<svg xmlns="http://www.w3.org/2000/svg" viewBox="0 0 36.45 41.44"><defs><style>.cls-1{fill:#707070;}</style></defs><g id="Calque_2" data-name="Calque 2"><g id="Calque_1-2" data-name="Calque 1"><path class="cls-1" d="M28.41,41.44a18.63,18.63,0,0,1-2.34-.72,7.32,7.32,0,0,1-3.82-9c.11-.32,0-.45-.24-.62q-4.46-2.7-8.9-5.44l-.31-.17a7.3,7.3,0,1,1,0-9.59l9.56-5.84A7.48,7.48,0,0,1,26.63.45a7.32,7.32,0,1,1-3,11.7L14.06,18a7.38,7.38,0,0,1,0,5.43l9.59,5.86a7.07,7.07,0,0,1,2.58-1.88,7,7,0,0,1,7.67,1.17,6.86,6.86,0,0,1,2.28,7.35,7.09,7.09,0,0,1-5.59,5.35l-.71.16ZM24.29,7.37a4.86,4.86,0,0,0,9.71,0,4.86,4.86,0,1,0-9.71,0Zm0,26.7a4.86,4.86,0,1,0,9.71,0,4.86,4.86,0,0,0-9.71,0ZM12.14,20.71a4.86,4.86,0,1,0-4.86,4.86A4.87,4.87,0,0,0,12.14,20.71Z"/></g></g></svg>