<svg xmlns="http://www.w3.org/2000/svg" viewBox="0 0 50.37 50.37"><defs><style>.cls-1{fill:#bcb893;}</style></defs><g id="Calque_2" data-name="Calque 2"><g id="Calque_1-2" data-name="Calque 1"><path class="cls-1" d="M7.58,50.37a1.26,1.26,0,0,1-.72-1.45,4.73,4.73,0,0,1,1.25-2.71c-.66-.41-1.35-.75-2-1.21a8.57,8.57,0,0,1-3.58-7c0-2.13,0-4.26,0-6.39V31c-.51,0-1,0-1.45,0A1,1,0,0,1,0,29.88V28.36a3,3,0,0,1,2.56-3.23v-.56c0-6.17,0-12.33,0-18.5A5.63,5.63,0,0,1,5.84.62,5.87,5.87,0,0,1,14.16,4.4a.65.65,0,0,0,.55.56,5.4,5.4,0,0,1,4.07,5c0,.8-.33,1.2-1.13,1.2H9.09C8.32,11.17,8,10.77,8,10a5.43,5.43,0,0,1,3.77-5l.46-.14A3.66,3.66,0,0,0,9.47,2.1,3.89,3.89,0,0,0,4.54,5.87c0,6.31,0,12.63,0,18.94,0,.08,0,.16,0,.31H46.73c2.13,0,2.85.47,3.64,2.43V30.3A1.17,1.17,0,0,1,49.1,31c-.41,0-.84,0-1.29,0v.6c0,2.15.06,4.3,0,6.44a8.67,8.67,0,0,1-5.12,7.88l-.43.21a5.18,5.18,0,0,1,1.27,2.77,1.25,1.25,0,0,1-.72,1.45H42.3a1.26,1.26,0,0,1-.76-1.25,1.63,1.63,0,0,0-.09-.48,2.63,2.63,0,0,0-2.73-1.88H11.45a2.56,2.56,0,0,0-2.62,2.41,1.3,1.3,0,0,1-.76,1.2Zm-3-19.32v.47c0,2.1,0,4.2,0,6.3a6.8,6.8,0,0,0,6.83,7q13.83.06,27.64,0a6.81,6.81,0,0,0,6.84-7c0-2.1,0-4.2,0-6.3,0-.15,0-.31,0-.47H39.94V37.7c0,.83-.34,1.18-1.16,1.19H27.33c-.82,0-1.16-.36-1.16-1.19V31.05Zm23.62,5.83h9.79V27.12H28.15ZM2,29H26.14V27.08h-.66c-7.26,0-14.52,0-21.78,0-1.67,0-1.81.49-1.72,1.86C2,29,2,29,2,29Zm38-1.93v2h8.4c0-.17,0-.31,0-.45,0-1.23-.25-1.5-1.5-1.5H40ZM10.16,9.18h6.45a3.3,3.3,0,0,0-3.26-2.42A3.26,3.26,0,0,0,10.16,9.18Z"/></g></g></svg>