<svg xmlns="http://www.w3.org/2000/svg" viewBox="0 0 50.34 50.33"><defs><style>.cls-1{fill:#bcb893;}</style></defs><g id="Calque_2" data-name="Calque 2"><g id="Calque_1-2" data-name="Calque 1"><path class="cls-1" d="M20.94,48.71h1V47.17a1.8,1.8,0,0,1,.62-1.44.48.48,0,0,0,.18-.32c0-2.67,0-5.34,0-8.07H17.18a2.44,2.44,0,1,1,0-4.87h7.14V14.64a1,1,0,0,0-.24,0,82.22,82.22,0,0,0-11.63.77,1.27,1.27,0,0,1-.55,0A15,15,0,0,0,6,14.88c-1.66.11-3.32.34-5,.53A.85.85,0,0,1,.12,15a.83.83,0,0,1,.15-1A21.93,21.93,0,0,1,6.08,9.21,54.49,54.49,0,0,1,19.51,3.76C21,3.35,22.49,3,24,2.66c.3-.07.39-.17.38-.46,0-.44,0-.88,0-1.32A.81.81,0,0,1,25.15,0,.82.82,0,0,1,26,.89V1c0,.52-.16,1.2.11,1.52s.95.29,1.46.41a63.38,63.38,0,0,1,15,5.3,25.54,25.54,0,0,1,6.87,5c.24.26.47.53.7.8a.8.8,0,0,1,.14,1,.84.84,0,0,1-.92.38c-1.68-.18-3.35-.41-5-.53a17.13,17.13,0,0,0-5.83.46,5.82,5.82,0,0,1-2.05-.16A99,99,0,0,0,26,14.61V32.47h7.09a2.44,2.44,0,1,1,0,4.87H27.63c0,.19,0,.35,0,.52,0,2.43,0,4.87,0,7.3a1,1,0,0,0,.28.69,3,3,0,0,1,.51,1.23,9.31,9.31,0,0,1,0,1.59h1c.48-1.9,1-3.81,1.42-5.74a7.88,7.88,0,0,0,0-1.46,2.43,2.43,0,0,1,2.5-2.5h2.53c.29-1.23.57-2.44.85-3.65.47-2,.93-4.05,1.41-6.07.15-.67.37-.84,1-.84h8.48c.84,0,1.15.4,1,1.23-.76,3.31-1.6,6.61-2.24,9.94a7.39,7.39,0,0,0,.24,4.28c.6,1.47,1.13,3,1.67,4.46.12.3.27.43.59.39a3.38,3.38,0,0,1,.71,0,.78.78,0,0,1,.73.78.81.81,0,0,1-.73.82,3.57,3.57,0,0,1-.46,0H1.19a3.53,3.53,0,0,1-.46,0A.79.79,0,0,1,0,49.49a.79.79,0,0,1,.73-.78H.89c1,0,1,0,1.34-1s.61-1.83,1-2.69A8.94,8.94,0,0,0,4,40a31.52,31.52,0,0,0-.72-3.42l-1.62-7c-.17-.76.15-1.18.93-1.18h8.57a.85.85,0,0,1,1,.79c.71,3.06,1.41,6.12,2.12,9.18,0,.18.09.36.15.59h2.37a2.4,2.4,0,0,1,2.64,2.65,18.74,18.74,0,0,0,.87,4.71C20.51,47.12,20.73,47.9,20.94,48.71Zm15.5-35.2-.16-.26a29.09,29.09,0,0,0-10.81-9,.92.92,0,0,0-.69,0,29.32,29.32,0,0,0-9.47,7.32c-.49.57-.94,1.18-1.48,1.87A119.43,119.43,0,0,1,36.44,13.51Zm8.38,25.43,2-8.88H39.61l-2,8.88Zm-39.31,0h7.26l-2-8.86H3.46ZM3.13,13.45c1-.07,1.9-.15,2.85-.2a19.56,19.56,0,0,1,5.4.29.58.58,0,0,0,.73-.3,28.12,28.12,0,0,1,6.06-6.63l1.37-1.08C13.61,7.23,7.87,9.3,3.13,13.45Zm44.18,0c-4.84-4.11-10.59-6.18-16.6-8a2.18,2.18,0,0,0,.19.22,30,30,0,0,1,7.44,7.75.59.59,0,0,0,.49.17c1.13-.1,2.25-.32,3.38-.33C43.87,13.21,45.54,13.33,47.31,13.41ZM14.38,48.68l-1.22-4.84c-.84,0-1.67,0-2.5,0a.44.44,0,0,0-.5.36c-.26.73-.54,1.46-.81,2.19s-.56,1.51-.86,2.3Zm21.58,0h5.88L40.09,44a.36.36,0,0,0-.26-.17c-.89,0-1.78,0-2.67,0ZM5.71,42.18H17.83c.1-1.4-.07-1.59-1.41-1.59H5.71Zm38.93-1.59H33.55c-.82,0-1.08.27-1.08,1.1,0,.16,0,.33,0,.49H44.64Zm-25.39,8.1L18,43.86H14.85l1.2,4.83Zm11.83,0h3.2l1.2-4.83H32.29Zm10.68-4.85c.61,1.61,1.18,3.14,1.76,4.66a.36.36,0,0,0,.24.2h3C46.12,47.09,45.55,45.57,45,44a.45.45,0,0,0-.33-.19C43.7,43.83,42.77,43.84,41.76,43.84ZM3.61,48.71c1,0,1.86,0,2.75,0,.32,0,.44-.13.53-.4.42-1.14.85-2.27,1.27-3.41.13-.34.25-.68.39-1.07-1,0-1.92,0-2.84,0a.44.44,0,0,0-.36.24C4.77,45.59,4.21,47.1,3.61,48.71ZM24.39,37.36v8.06H26V37.36Zm-.82,9.75v1.57h3.18V47.11Z"/></g></g></svg>