<svg xmlns="http://www.w3.org/2000/svg" viewBox="0 0 52.96 39.97"><defs><style>.cls-1{fill:#bcb893;}</style></defs><g id="Calque_2" data-name="Calque 2"><g id="Calque_1-2" data-name="Calque 1"><path class="cls-1" d="M0,25a1.13,1.13,0,0,1,1.09-.53q11.85,0,23.71,0A5.13,5.13,0,0,1,28.69,26c.42.43.85.86,1.28,1.27a3.2,3.2,0,0,0,2.29.94q9.3,0,18.6,0l.25,0a5.32,5.32,0,0,0-1.25-2.11,1.81,1.81,0,0,0-1.52-.66c-2.06,0-4.13,0-6.2,0a1.14,1.14,0,0,1-.78-.27.84.84,0,0,1-.14-.77,1.14,1.14,0,0,1,.76-.48c1-.05,2,0,3,0h2.5c0-.07,0-.13,0-.16-2.14-2.12-4.27-4.25-6.43-6.35a1.11,1.11,0,0,0-.72-.29c-3,0-6.06,0-9.09,0h-.42a35.46,35.46,0,0,0,0,4,3.28,3.28,0,0,0,3.33,2.81c1.29,0,2.58,0,3.88,0,.61,0,1,.28,1,.75s-.36.81-1,.8a46.73,46.73,0,0,1-4.74-.12,4.76,4.76,0,0,1-4.07-4.64c0-1.4,0-2.79,0-4.19,0-.69.27-1,1-1H38.3A9.44,9.44,0,0,0,34.74,14a23.08,23.08,0,0,0-4.29-.53c-7.27-.05-14.53,0-21.8,0a2.56,2.56,0,0,1-.62,0,.71.71,0,0,1-.6-.83.69.69,0,0,1,.71-.68c.78,0,1.55,0,2.4,0C10.3,9,12,8.32,14.57,8.6c-.49-.84-.86-1.57-1.33-2.24a1.79,1.79,0,0,1-.13-2.13c.44-.83.77-1.72,1.19-2.67-.89,0-1.71,0-2.53,0-.11,0-.25.16-.32.28-.22.4-.41.83-.63,1.24s-.66.67-1.09.46a.77.77,0,0,1-.3-1.14c.28-.58.59-1.13.85-1.71A1.08,1.08,0,0,1,11.41,0c2.89,0,5.79,0,8.68,0C21.52,0,23,0,24.38,0a1.06,1.06,0,0,1,1.13.69c.26.58.57,1.14.84,1.71a.79.79,0,0,1-.29,1.16c-.42.2-.82,0-1.09-.48a.76.76,0,0,1-.09-.18c-.32-1.1-1-1.44-2.16-1.38-2.06.12-4.13.05-6.2,0a.67.67,0,0,0-.75.5C15.39,3,15,3.89,14.56,4.79a.76.76,0,0,0,0,.81c.53.84,1,1.7,1.53,2.57a.68.68,0,0,0,.69.4c1.65,0,3.31,0,5,0a2.54,2.54,0,0,1,2.84,2.82c0,.15,0,.3,0,.52l.57,0c1.92,0,3.83,0,5.74,0a16.8,16.8,0,0,1,11.7,4.8q4.29,4.11,8.4,8.4a6.26,6.26,0,0,1,1.34,7.21,6.42,6.42,0,0,1-6.11,4.08c-.67,0-1.34,0-2,0s-.9-.32-.89-.79.34-.74.87-.76a27,27,0,0,0,3-.12,5.09,5.09,0,0,0,4.14-4.66V29.8H50.7c-6,0-12,0-18,0a5.48,5.48,0,0,1-4.11-1.69C26.45,26,26.44,26,23.46,26H1.09A1.11,1.11,0,0,1,0,25.46ZM23,11.88c.21-1.41-.08-1.77-1.43-1.77h-7c-.51,0-1,0-1.55,0a.87.87,0,0,0-.9.92c0,.27,0,.54,0,.84Z"/><path class="cls-1" d="M0,35.38a1.13,1.13,0,0,1,1.09-.52H40.2a1.86,1.86,0,0,1,.41,0,.74.74,0,0,1,.65.81.71.71,0,0,1-.69.71,9.28,9.28,0,0,1-1.06,0,4.32,4.32,0,0,1-3.33,3.43,4.26,4.26,0,0,1-4.5-1.7,4.37,4.37,0,0,1-7.83-1.7h-6A4.4,4.4,0,0,1,10,38.18a4.39,4.39,0,0,1-7.84-1.72c-.71-.2-1.59.31-2.12-.56Zm9,1.07H3.81a2.65,2.65,0,0,0,2.61,2A2.62,2.62,0,0,0,9,36.45Zm21.72,0H25.54a2.57,2.57,0,0,0,2.48,2A2.63,2.63,0,0,0,30.73,36.44Zm1.88,0a2.66,2.66,0,0,0,2.78,2,2.55,2.55,0,0,0,2.41-2Zm-16.52,0H10.91a2.64,2.64,0,0,0,2.67,2A2.57,2.57,0,0,0,16.09,36.44Z"/><path class="cls-1" d="M0,16.06a1.18,1.18,0,0,1,1.1-.52c2.89,0,5.78,0,8.67,0,.82,0,1.07.26,1.07,1.09,0,1.69,0,3.37,0,5.06,0,.79-.26,1.05-1.05,1.05-2.9,0-5.79,0-8.68,0A1.21,1.21,0,0,1,0,22.26v-.52a1,1,0,0,1,1.07-.55c2.53,0,5.05,0,7.58,0h.61V17.1h-.6c-2.53,0-5.05,0-7.58,0A1.09,1.09,0,0,1,0,16.58Z"/><path class="cls-1" d="M0,12.44a1,1,0,0,1,1-.54c1.13,0,2.27,0,3.4,0,.57,0,.9.28.91.75a.8.8,0,0,1-.89.79c-1.18,0-2.37,0-3.55,0-.3,0-.59-.31-.89-.48Z"/><path class="cls-1" d="M18.6,15.55h5c.8,0,1.05.25,1.05,1.05v5.16c0,.73-.26,1-1,1h-10c-.74,0-1-.27-1-1V16.54c0-.71.29-1,1-1Zm-4.39,1.56v4.05H23V17.11Z"/><path class="cls-1" d="M19.42,31.07c0-.36,0-.72,0-1.08a.71.71,0,0,1,.71-.74.72.72,0,0,1,.81.68c0,.74,0,1.48,0,2.21a.77.77,0,0,1-1.53,0C19.41,31.75,19.42,31.41,19.42,31.07Z"/><path class="cls-1" d="M24.3,31.07c0,.35,0,.69,0,1a.77.77,0,0,1-1.53,0q0-1.08,0-2.16a.77.77,0,1,1,1.53.06C24.31,30.39,24.3,30.73,24.3,31.07Z"/><path class="cls-1" d="M16.09,31c0-.35,0-.69,0-1a.71.71,0,0,1,.72-.73.67.67,0,0,1,.78.64,19.78,19.78,0,0,1,0,2.31.69.69,0,0,1-.78.66.71.71,0,0,1-.73-.72C16.08,31.76,16.09,31.38,16.09,31Z"/></g></g></svg>