<svg xmlns="http://www.w3.org/2000/svg" viewBox="0 0 54.06 35.21"><defs><style>.cls-1{fill:#bcb893;}</style></defs><g id="Calque_2" data-name="Calque 2"><g id="Calque_1-2" data-name="Calque 1"><path class="cls-1" d="M5.86,11.86H2.45C.78,11.85,0,11.07,0,9.38c0-.31,0-.62,0-.92a2,2,0,0,1,2.06-2c1,0,2,0,2.93,0A2,2,0,0,1,7.11,8.52c0,.6,0,1.2,0,1.78.67.3.68.29.93-.33.84-2.14,1.61-4.3,2.54-6.41A6,6,0,0,1,14.9.16,7.29,7.29,0,0,1,16.52,0H37.59A6.39,6.39,0,0,1,43,2.73a5,5,0,0,1,.56,1c.84,2.1,1.66,4.21,2.49,6.31.1.26.18.45.53.38s.32-.28.32-.52c0-.46,0-.91,0-1.36a2,2,0,0,1,2.15-2.16q1.44,0,2.88,0a2,2,0,0,1,2.07,2c0,.43,0,.87,0,1.3a2.06,2.06,0,0,1-2.11,2.1c-1,0-2.1,0-3.15,0h-.73c.23.2.35.31.48.41a8.07,8.07,0,0,1,3.15,6.25c.07,2.68,0,5.37,0,8.05a2.77,2.77,0,0,1-1,2.18.86.86,0,0,0-.27.58c0,1.22,0,2.43,0,3.65a2,2,0,0,1-2.08,2.17q-2.31.06-4.62,0A2,2,0,0,1,41.61,33c0-1.19,0-2.38,0-3.61H12.39V30c0,1.09,0,2.18,0,3.26a2,2,0,0,1-1.94,2q-2.41.06-4.83,0a2,2,0,0,1-1.94-2c0-1.26,0-2.51,0-3.76a1,1,0,0,0-.29-.63,2.82,2.82,0,0,1-1-2.19c0-2.63,0-5.26,0-7.89a8.17,8.17,0,0,1,3.15-6.41l.37-.3ZM27,27.73H48.79a1.12,1.12,0,0,0,1.27-1.23c0-2.64,0-5.29,0-7.94a6.72,6.72,0,0,0-6.63-6.46H11a7.91,7.91,0,0,0-1.29.07,6.77,6.77,0,0,0-5.8,6.77c0,2.37,0,4.75,0,7.13,0,1.34.32,1.66,1.66,1.66ZM44.49,10.49,44.31,10q-1-2.58-2-5.15a4.81,4.81,0,0,0-4.77-3.26c-2.57,0-5.14,0-7.71,0-4.49,0-9,0-13.47,0a4.82,4.82,0,0,0-4.62,3.17L9.7,9.9c-.07.18-.13.37-.21.59ZM5.26,29.35c0,1.27,0,2.5,0,3.72a.73.73,0,0,0,.52.47c1.5,0,3,0,4.49,0a.7.7,0,0,0,.5-.44c0-1.24,0-2.48,0-3.75Zm38,0c0,1.29,0,2.52,0,3.74a.74.74,0,0,0,.53.47c1.48,0,3,0,4.44,0,.18,0,.5-.27.5-.42,0-1.24,0-2.49,0-3.75a2.07,2.07,0,0,0-.22,0Zm5.3-19.06h2.31c1.82,0,1.58.17,1.6-1.71V8.51c-.17-.17-.34-.49-.51-.49C51,8,50,8,49.07,8a.73.73,0,0,0-.51.48A15,15,0,0,0,48.54,10.27Zm-43,0c0-.6,0-1.12,0-1.65A.53.53,0,0,0,4.93,8H2.16a.52.52,0,0,0-.56.59,6.18,6.18,0,0,0,0,1.14c0,.2.3.5.47.51C3.21,10.29,4.33,10.26,5.52,10.26Z"/><path class="cls-1" d="M27,21.27H17.23c-1.17,0-1.69-.56-1.63-1.72a4.27,4.27,0,0,1,4.37-4H31.32c1,0,2,0,3,0a4.24,4.24,0,0,1,4.1,4.06,1.39,1.39,0,0,1-1.52,1.62C33.63,21.28,30.32,21.27,27,21.27Zm-9.79-1.62H36.84a1.49,1.49,0,0,0,0-.19A2.73,2.73,0,0,0,34,17.15H24.29c-1.45,0-2.9,0-4.35,0A2.64,2.64,0,0,0,17.22,19.65Z"/><path class="cls-1" d="M27,25.52H16a4,4,0,0,1-.49,0,.75.75,0,0,1-.74-.78.72.72,0,0,1,.69-.77,3.1,3.1,0,0,1,.43,0H38.2c.16,0,.37,0,.47,0a1.72,1.72,0,0,1,.6.73c.09.39-.19.68-.59.78a1.94,1.94,0,0,1-.54,0Z"/><path class="cls-1" d="M40,17.91a3.62,3.62,0,1,1,3.61,3.65A3.66,3.66,0,0,1,40,17.91Zm1.61,0a2,2,0,0,0,2,2,2,2,0,0,0,2-2,2,2,0,0,0-4,0Z"/><path class="cls-1" d="M14.05,17.92a3.61,3.61,0,1,1-7.22,0,3.61,3.61,0,1,1,7.22,0Zm-3.57-2a2,2,0,0,0-2,2,2,2,0,1,0,2-2Z"/></g></g></svg>