<svg xmlns="http://www.w3.org/2000/svg" viewBox="0 0 52.08 52.07"><defs><style>.cls-1{fill:#474329;}</style></defs><g id="Calque_2" data-name="Calque 2"><g id="Calque_1-2" data-name="Calque 1"><path class="cls-1" d="M24.41,0h3.26l.44.09C29.72.37,31.37.52,33,1A26,26,0,0,1,27.24,52,25.3,25.3,0,0,1,9.88,46.43,25.53,25.53,0,0,1,.39,30.48C.22,29.55.13,28.6,0,27.67V24.41c.08-.64.14-1.27.24-1.91A25.71,25.71,0,0,1,7.42,7.85,25.56,25.56,0,0,1,21.55.4C22.5.23,23.46.13,24.41,0ZM3.25,26.05a22.79,22.79,0,1,0,22.8-22.8A22.8,22.8,0,0,0,3.25,26.05Z"/><path class="cls-1" d="M26,40.68H18.13A6.5,6.5,0,0,1,11.39,34V18.14a6.51,6.51,0,0,1,6.77-6.75H34.07a6.44,6.44,0,0,1,6.44,5.09,7.22,7.22,0,0,1,.17,1.61q0,7.93,0,15.87A6.48,6.48,0,0,1,34,40.68ZM14.65,26c0,2.66,0,5.32,0,8a3.24,3.24,0,0,0,3.44,3.44H34A3.25,3.25,0,0,0,37.43,34V18.11A3.24,3.24,0,0,0,34,14.65H18.14a3.24,3.24,0,0,0-3.49,3.48C14.64,20.76,14.65,23.39,14.65,26Z"/><path class="cls-1" d="M32.55,26a6.51,6.51,0,1,1-6.46-6.5A6.53,6.53,0,0,1,32.55,26ZM26,22.78A3.26,3.26,0,1,0,29.29,26,3.27,3.27,0,0,0,26,22.78Z"/><path class="cls-1" d="M33.34,20.75a2,2,0,1,1,2-2A2,2,0,0,1,33.34,20.75Z"/></g></g></svg>