<svg xmlns="http://www.w3.org/2000/svg" viewBox="0 0 51.91 51.92"><defs><style>.cls-1{fill:#474329;}</style></defs><g id="Calque_2" data-name="Calque 2"><g id="Calque_1-2" data-name="Calque 1"><path class="cls-1" d="M24.44,51.92c-1-.14-2-.22-3-.41A25.59,25.59,0,0,1,3.05,38.13a24.09,24.09,0,0,1-3-13.26c.6-9.74,5.22-17,13.74-21.81A23.75,23.75,0,0,1,27,.05c9.74.6,17,5.23,21.82,13.73a24.06,24.06,0,0,1,3,10.22,3.12,3.12,0,0,0,.09.44v3a3.43,3.43,0,0,0-.09.44,24.39,24.39,0,0,1-3,10.22A25.63,25.63,0,0,1,30.48,51.51c-1,.19-2,.27-3,.41ZM26,3.33A22.64,22.64,0,1,0,48.59,26,22.66,22.66,0,0,0,26,3.33Z"/><path class="cls-1" d="M21.27,26V22.42h2.34c0-.24,0-.45,0-.66a31.26,31.26,0,0,1,.22-3.37,3.24,3.24,0,0,1,2.45-2.7c1.81-.54,3.67-.31,5.54-.35v3.55H30c-1.38,0-1.64.29-1.65,1.68V22.4h3.55L31.45,26H28.32V36.56H23.61V26Z"/></g></g></svg>